<svg fill="#26e07f" xmlns="http://www.w3.org/2000/svg"  viewBox="0 0 50 50" width="50px" height="50px"><path d="M 7 4 C 4.8026661 4 3 5.8026661 3 8 L 3 42 C 3 44.197334 4.8026661 46 7 46 L 43 46 C 45.197334 46 47 44.197334 47 42 L 47 8 C 47 5.8026661 45.197334 4 43 4 L 7 4 z M 7 6 L 43 6 C 44.116666 6 45 6.8833339 45 8 L 45 42 C 45 43.116666 44.116666 44 43 44 L 7 44 C 5.8833339 44 5 43.116666 5 42 L 5 8 C 5 6.8833339 5.8833339 6 7 6 z M 36 11 C 33.592791 11 31.56844 12.725392 31.101562 15 L 27 15 A 1.0001 1.0001 0 0 0 26.125 15.513672 L 21.410156 24 L 18.898438 24 C 18.43156 21.725392 16.407209 20 14 20 C 11.250421 20 9 22.250421 9 25 C 9 27.749579 11.250421 30 14 30 C 16.407209 30 18.43156 28.274608 18.898438 26 L 21.410156 26 L 26.125 34.486328 A 1.0001 1.0001 0 0 0 27 35 L 31.101562 35 C 31.56844 37.274608 33.592791 39 36 39 C 38.749579 39 41 36.749579 41 34 C 41 31.250421 38.749579 29 36 29 C 33.592791 29 31.56844 30.725392 31.101562 33 L 27.587891 33 L 23.144531 25 L 27.587891 17 L 31.101562 17 C 31.56844 19.274608 33.592791 21 36 21 C 38.749579 21 41 18.749579 41 16 C 41 13.250421 38.749579 11 36 11 z M 36 13 C 37.668699 13 39 14.331301 39 16 C 39 17.668699 37.668699 19 36 19 C 34.331301 19 33 17.668699 33 16 C 33 14.331301 34.331301 13 36 13 z M 14 22 C 15.668699 22 17 23.331301 17 25 C 17 26.668699 15.668699 28 14 28 C 12.331301 28 11 26.668699 11 25 C 11 23.331301 12.331301 22 14 22 z M 36 31 C 37.668699 31 39 32.331301 39 34 C 39 35.668699 37.668699 37 36 37 C 34.331301 37 33 35.668699 33 34 C 33 32.331301 34.331301 31 36 31 z"/></svg>