<svg xmlns="http://www.w3.org/2000/svg" version="1.2" baseProfile="tiny-ps" viewBox="0 0 200 200">
  <title>AM Logo</title>
  <desc>AM Logo</desc>
  <rect width="200" height="200" fill="#ffffff"/>
  <path d="M18 133.68 L18 130.44 Q21.76 130.39 22.69 130.13 Q23.61 129.87 24.40 129.13 Q25.18 128.40 26.66 125.30 Q27.51 123.54 32.84 111.94 L44.73 85.11 Q46.68 80.69 53.05 65.42 L56.15 65.42 L76.46 113.13 Q81.40 124.73 83.02 127.68 Q83.92 129.35 84.99 129.87 Q86.06 130.39 89.82 130.44 L89.82 133.68 Q82.40 133.20 79.45 133.20 L64.14 133.68 L64.14 130.44 Q69.46 130.35 70.61 130.11 Q71.75 129.87 72.15 129.42 Q72.56 128.97 72.56 128.30 Q72.56 127.25 71.89 125.59 L66.04 111.03 L38.50 111.03 L33.32 123.26 Q31.94 126.54 31.94 128.06 Q31.94 128.73 32.32 129.16 Q32.84 129.77 33.93 130.01 Q35.69 130.39 40.12 130.44 L40.12 133.68 Q32.08 133.25 28.08 133.25 Q23.47 133.25 18 133.68 Z M40.12 106.99 L64.14 106.99 L52.25 78.31 Z M93.91 69.13 L93.91 66.09 Q98.91 66.28 103.47 66.28 Q108.09 66.28 112.32 66.09 Q116.50 75.60 119.98 82.78 L138 119.88 L154.27 85.87 Q160.93 71.98 163.16 66.09 Q168.21 66.28 171.68 66.28 Q174.87 66.28 182 66.09 L182 69.13 Q176.34 69.23 175.13 69.63 Q173.91 70.03 173.44 70.75 Q172.82 71.70 172.73 75.36 Q172.68 76.31 172.49 88.87 L172.49 110.89 Q172.49 117.36 172.68 123.50 Q172.82 128.02 173.37 128.87 Q173.91 129.73 175.13 130.13 Q176.34 130.54 182 130.63 L182 133.68 Q172.39 133.25 168.44 133.25 Q165.26 133.25 154.37 133.68 L154.37 130.63 Q160.03 130.54 161.26 130.13 Q162.50 129.73 162.93 129.01 Q163.55 128.06 163.64 124.40 Q163.69 123.40 163.88 110.89 L163.88 75.98 L147.47 110.32 Q143.62 118.36 141.43 123.26 Q139.86 126.83 136.67 134.58 L134.82 134.58 Q134.20 132.77 133.68 131.68 L130.44 124.78 L107.71 77.55 L107.71 110.89 Q107.71 117.36 107.90 123.50 Q108.04 128.02 108.59 128.87 Q109.13 129.73 110.35 130.13 Q111.56 130.54 117.22 130.63 L117.22 133.68 L105.76 133.29 L93.91 133.68 L93.91 130.63 Q99.52 130.54 100.76 130.13 Q102 129.73 102.47 129.01 Q103.04 128.06 103.19 124.40 Q103.23 123.40 103.38 110.89 L103.38 88.87 Q103.38 82.40 103.23 76.22 Q103.09 71.70 102.54 70.87 Q102 70.03 100.78 69.63 Q99.57 69.23 93.91 69.13 Z" fill="#474747"/>
</svg>
